
<?xml version="1.0" encoding="utf-8"?>
<!-- Generator: Adobe Illustrator 19.0.0, SVG Export Plug-In . SVG Version: 6.00 Build 0)  -->
<svg version="1.1" id="图层_1" xmlns="http://www.w3.org/2000/svg" xmlns:xlink="http://www.w3.org/1999/xlink" x="0px" y="0px"
	 viewBox="0 0 288 46.1" style="enable-background:new 0 0 288 46.1;" xml:space="preserve">
<style type="text/css">
	.st0{fill:none;}
	.st1{enable-background:new    ;}
	.st2{fill:#D80C18;}
</style>
<rect id="XMLID_5_" x="138.2" y="6" width="0.5" height="34.1"/>
<rect id="XMLID_129_" x="144.2" y="12.7" class="st0" width="143.8" height="20.8"/>
<g class="st1">
	<path d="M152.6,31.2h-6.7V15h6.3c3.2,0.2,4.9,1.5,5.2,4c-0.2,2-1.2,3.2-3.2,3.5v0.1c2.4,0.4,3.7,1.7,3.9,4.1
		C157.8,29.6,156,31.1,152.6,31.2z M151.8,16.7h-4.2v5.4h4.2c2.2-0.1,3.4-1.1,3.6-2.9C155.3,17.5,154.1,16.7,151.8,16.7z M152,23.7
		h-4.4v6.1h4.8c2.5,0,3.8-1,3.8-3.1C156,24.7,154.6,23.8,152,23.7z"/>
	<path d="M161.3,15h1.8v16.1h-1.8V15z"/>
	<path d="M180.5,19.8c0-0.3,0.1-1.1,0.2-2.4c0.1-0.4,0.1-0.7,0.1-0.9l-0.1-0.1c-0.2,0.9-0.4,1.6-0.6,2.1L175,31.2h-1l-5.1-12.7
		c-0.2-0.9-0.4-1.5-0.5-2l-0.1,0.1c0.1,1.4,0.2,2.5,0.2,3.4v11.3h-1.7V15h2.4l4.7,11.7c0.2,0.6,0.4,1.4,0.6,2.3h0.1
		c0.2-0.8,0.4-1.5,0.6-2.2l4.7-11.8h2.4v16.1h-1.9V19.8z"/>
	<path d="M184.5,24c0.8-0.2,1.7-0.5,2.8-0.9V19h-2.6v-1.4h2.6v-3.8h1.5v3.8h2.3V19h-2.3v3.7c0.8-0.3,1.5-0.5,2.2-0.7
		c0,0.6,0,1.2,0.1,1.5c-0.1,0.1-0.3,0.1-0.6,0.2c-0.7,0.2-1.2,0.4-1.6,0.6v6c0.1,1.5-0.6,2.3-2.2,2.3c-0.4,0.1-1,0.1-1.6,0.1
		c0-0.1-0.1-0.4-0.2-0.8c-0.1-0.4-0.2-0.7-0.2-0.9c0.3,0.1,0.9,0.1,1.8,0.1c0.6,0.1,0.9-0.2,0.9-0.9v-5.3c-1,0.3-1.9,0.6-2.7,0.9
		L184.5,24z M191.7,22.5v-1.3h5v-3h-5.1v-1.4h5.1v-3.1h1.5v3.1h5.3v1.4h-5.3v3h4.2v1.2c-1.1,2.7-2.3,4.8-3.8,6.3
		c1.1,0.9,2.8,1.7,5.3,2.4c-0.1,0.1-0.2,0.2-0.3,0.3c-0.4,0.5-0.7,0.9-0.8,1.1c-2-0.8-3.8-1.7-5.4-2.8c-1.6,1.2-3.7,2.2-6.1,3.1
		c-0.3-0.4-0.6-0.8-1-1.4c2.7-0.9,4.8-1.9,6.1-2.9c-1.3-1.3-2.5-3.4-3.4-6.1H191.7z M200.8,22.5h-6.2c0.8,2.3,1.8,4.1,3,5.2
		C198.9,26.4,200,24.7,200.8,22.5z"/>
	<path d="M205,29.5c3.5-2.3,6.2-5.5,8-9.7h-7.4v-1.4h8.6v-4.8h1.5v4.8h8.6v1.4h-7.5c1.9,4,4.5,7.1,8,9.1c-0.1,0.1-0.2,0.2-0.3,0.3
		c-0.4,0.5-0.7,0.9-0.9,1.2c-3.5-2.5-6.2-6-7.8-10.3v12.7h-1.5V20.1c-1.6,4.4-4.2,7.9-8,10.6c-0.1-0.1-0.3-0.2-0.5-0.4
		C205.4,29.9,205.2,29.6,205,29.5z M217.8,14.7l1.1-0.9c1,0.9,1.9,1.9,2.9,3.1l-1.3,1c-0.2-0.2-0.4-0.4-0.6-0.7
		C219,16,218.3,15.2,217.8,14.7z"/>
	<path d="M231.4,13.9c-0.2,0.2-0.3,0.5-0.3,0.7c0.4,0.4,1,1.2,1.8,2.2c1,1.2,1.5,1.9,1.7,2.2l-1.2,1c-1.2-1.7-2.2-3-2.9-4
		c-1.2,2.4-2.4,4.4-3.8,6.2c-0.1-0.1-0.2-0.3-0.4-0.7c-0.2-0.3-0.4-0.5-0.5-0.6c1.6-2,2.9-4.4,4-7.1L231.4,13.9z M226.9,27l1-0.9
		c0.4,0.5,1.1,1.4,2.2,2.7c0.6-1.3,1.3-2.7,2.1-4.4h-5.7V23h7.3v1.4c-0.8,1.8-1.7,3.7-2.7,5.6c0.8,0.8,1.2,1.4,1.5,1.7l-1.3,1
		C229.9,30.8,228.5,28.9,226.9,27z M229.1,19.3l1.2-0.6c0.8,1.3,1.3,2.3,1.6,2.9l-1.3,0.7C230.2,21.4,229.7,20.4,229.1,19.3z
		 M240.2,27.5c2.2,1.7,3.9,3.1,5,4.1l-1.1,1c-1.7-1.5-3.3-2.8-4.8-4c-0.7,1.3-2.4,2.7-5,4.2c-0.1-0.1-0.2-0.3-0.5-0.6
		c-0.3-0.3-0.5-0.5-0.6-0.6c2.3-1,3.7-2,4.4-3.1c0.8-1.1,1.2-2.7,1.1-5v-2.7h1.4v2.9c0,2-0.2,3.6-0.7,4.6L240.2,27.5z M234,14.6
		h11.2v1.4h-4.8l-0.6,2.7h4.4v9.4h-1.4v-8h-6.5V28h-1.5v-9.4h3.5l0.5-2.7H234V14.6z"/>
	<path d="M246.6,22.4h1.2v-6.6h2c0.1-0.2,0.1-0.4,0.2-0.8c0.1-0.6,0.2-1,0.3-1.4l1.4,0.2c-0.1,0.3-0.2,0.7-0.3,1.3
		c-0.1,0.3-0.1,0.5-0.2,0.6h2.7v14.7c0.1,1.3-0.6,2-1.9,2c-0.6,0-1.2,0-1.7,0c0-0.1,0-0.3-0.1-0.5c-0.1-0.4-0.2-0.7-0.2-1
		c0.3,0.1,0.8,0.1,1.7,0.1c0.6,0.1,0.9-0.2,0.9-0.8v-6.5h-3.5V25c0,2.1-0.1,3.6-0.3,4.6c-0.2,1-0.6,2-1.3,3.1
		c-0.1-0.1-0.3-0.2-0.6-0.4c-0.3-0.2-0.5-0.4-0.6-0.5c1.1-1.3,1.6-3.5,1.5-6.8v-1.2h-1.2V22.4z M249.1,17.1v5.2h3.5v-5.2H249.1z
		 M249.7,18.7l1.2-0.5c0.2,0.4,0.4,1,0.8,1.9c0.2,0.4,0.3,0.7,0.3,0.9l-1.2,0.4C250.5,20.6,250.1,19.7,249.7,18.7z M249.7,25.4
		l1.2-0.5c0.2,0.4,0.5,1.3,1,2.7c0.1,0.3,0.2,0.6,0.2,0.7l-1.2,0.4C250.5,27.5,250.1,26.4,249.7,25.4z M257.8,22.1V24
		c0,2.4-0.2,4.1-0.5,5.2c-0.3,1.1-1,2.3-2.1,3.5c-0.1-0.1-0.2-0.2-0.5-0.4c-0.3-0.3-0.5-0.5-0.6-0.6c1-0.9,1.6-1.9,1.9-3
		c0.3-1,0.5-2.6,0.5-4.8v-3.3h6.1v9.1c-0.1,0.6,0.2,0.9,0.8,0.8h0.2c0.5,0,0.8-0.3,0.8-0.8c0-0.4,0.1-1.6,0.2-3.5
		c0.2,0.1,0.4,0.2,0.8,0.4c0.3,0.2,0.5,0.3,0.6,0.3c-0.1,0.6-0.1,1.3-0.2,2c-0.1,0.5-0.1,0.8-0.1,1c-0.1,1.3-0.8,2-2.2,1.9H263
		c-1.2,0.1-1.8-0.6-1.8-1.9v-8H257.8z M254.7,16.7h4.6c-0.1-0.3-0.4-0.9-0.7-1.7c-0.2-0.5-0.4-0.8-0.4-1l1.4-0.4
		c0.1,0.2,0.3,0.6,0.6,1.3c0.3,0.7,0.5,1.2,0.6,1.4l-1.2,0.5h5.8v1.5h-10.6V16.7z"/>
	<path d="M283.7,15l1.3,1c-1.3,1.5-2.7,2.8-4.2,4h5.6v1.4H279c-1.1,0.8-2.3,1.5-3.5,2.1h7.7v9.3h-1.5v-1.1h-9.1v1.1h-1.5v-7.1
		c-1.1,0.5-2.3,1-3.5,1.5c-0.1-0.4-0.3-0.9-0.7-1.5c3.6-1.2,6.8-2.6,9.6-4.3h-9.1V20h7.4v-2.4h-5.5v-1.4h5.5v-2.4h1.5v2.4h4.8v1.4
		h-4.8V20h2.1C280.5,18.6,282.2,17,283.7,15z M281.8,24.7H273c-0.1,0-0.1,0-0.1,0.1c-0.1,0.1-0.2,0.1-0.3,0.1V27h9.1V24.7z
		 M272.6,28.2v2.3h9.1v-2.3H272.6z"/>
</g>
<g id="XMLID_4_">
	<g id="XMLID_17_">
		<g id="XMLID_18_">
			<g id="XMLID_38_">
				<path id="XMLID_51_" d="M63.3,12v0.7h2.1V12H63.3z M63.3,10.4v0.7h2.1v-0.7H63.3z M58.8,12v0.7h2.1V12H58.8z M58.8,10.4v0.7h2.1
					v-0.7H58.8z M58.6,18.6v0.7h6.8v-0.7H58.6z M58.6,17v0.8h6.8V17H58.6z M58.8,9.2v0.4h2.1c0.4-0.2,0.8-0.5,1.3-1h-3.6
					c-0.5,0.3-1.1,0.5-1.7,0.6H58.8z M66.2,15.7l2.8,0.5l-0.8,0.5v4h-2.7v-0.6h-6.8v0.5h-2.8v-4.7h2.8v0.3h6.8L66.2,15.7z M57.5,7
					h3.6c-0.2,0.2-0.5,0.4-0.8,0.7c-0.1,0.1-0.1,0.1-0.2,0.2h3.1l0.9-0.5l2.7,0.4l-1.1,0.4c-0.9,0.7-1.9,1.2-2.9,1.5h2.7L66.3,9
					L69,9.4l-0.7,0.5v3.9h-2.8v-0.4h-6.7v0.4H56V9.4c-0.1,0-0.3,0.1-0.5,0.1c-0.5,0.1-0.9,0.1-1.3,0.2l-0.1-0.1
					C55.5,8.9,56.6,8.1,57.5,7z M69.9,14.4v0.9H54.1v-0.9H69.9z"/>
				<path id="XMLID_46_" d="M84.1,7.6h5.3v1h-1.5v3.6H89v1h-1.1V19h1.7v1H83v-1h2.5v-5.7h-1.1v-1h1.1V8.6h-1.3L84.1,7.6L84.1,7.6z
					 M79.1,11l0.3-0.1c0.6,0.6,1,1.1,1.2,1.4c0.2,0.3,0.3,0.8,0.2,1.3c-0.1,0.5-0.4,0.8-0.9,0.9c-0.5,0-0.7-0.2-0.7-0.7
					c0,0,0-0.1,0-0.2C79.5,12.7,79.5,11.8,79.1,11z M81.1,7h2.5v6.6c0,2.2-0.3,3.7-1,4.4c-0.6,0.7-2.2,1.6-4.8,2.7l-0.2-0.1
					c1.5-1,2.4-2,2.8-2.9c0.5-0.9,0.7-2.3,0.7-4.3V7z M79.9,15.5l0.2,0.1c-1,1.7-2.9,3.2-5.6,4.5c-0.3-1-0.5-1.6-0.6-2
					c0.3-0.1,0.9-0.2,1.7-0.5v-4.2h-1.1v-1h1.1V8.7H74v-1h5.5v1H78v3.6h1v1h-1v3.2C78.2,16.4,78.8,16,79.9,15.5z"/>
				<path id="XMLID_42_" d="M102.1,7h2.8c-0.2,0.8-0.4,1.4-0.5,1.9h1.8l0.8-0.7l2.6,0.6l-0.7,0.5c-0.3,1.2-1.2,2.2-2.6,3l-0.3-0.1
					c0.2-1.1,0.3-1.8,0.3-2.3h-2.4c-0.5,0.9-1.7,1.9-3.4,2.8l-0.2-0.1C101.2,11.5,101.8,9.6,102.1,7z M100.5,20.4l-0.3-0.1
					c1.1-1,1.9-2.1,2.2-3.1c0.3-1.1,0.5-2.9,0.5-5.6h2.6c0,0.8,0,1.4-0.1,1.6c0,0.3,0,0.5,0,0.7c0.7,2.2,2,3.8,3.8,4.8
					c0.1,0.1,0,0.2-0.3,0.2c-0.8,0.3-1,0.8-0.5,1.5c0,0.2,0,0.2-0.1,0.3c-0.1,0-0.2,0-0.3-0.1c-1.6-0.9-2.7-2.4-3.1-4.3
					C104.6,17.7,103.1,19.1,100.5,20.4z M98.1,9.1h3v1h-3.4c-0.2,0.7-0.7,1.8-1.5,3.3h1.2v-1.8h2.6v1.8h1.4v1H100V16
					c0.1,0,0.4-0.1,0.7-0.2c0.5-0.2,1-0.3,1.3-0.3l0.1,0.2c-0.8,0.6-1.5,1-2.1,1.3v3.6h-2.6v-2.4c-0.8,0.3-1.8,0.6-3.1,0.9
					c-0.3-0.9-0.5-1.5-0.7-1.8c0.2,0,0.6-0.1,1.2-0.2c1.3-0.2,2.2-0.4,2.6-0.6v-2.2h-1.5l-0.5,0.4l-2-0.6l0.6-0.4
					c0.5-1.2,1-2.5,1.3-3.7h-1.6V9h1.8c0.1-0.6,0.2-1.2,0.4-2h2.7C98.4,7.6,98.2,8.3,98.1,9.1z"/>
				<path id="XMLID_39_" d="M125.5,7v3h3.3v1h-3.3v3.2h3.7v1h-3.7v5.4h-2.6v-5.4H118v-1h4.8V11h-1.7c-0.4,0.8-1.2,1.7-2.5,2.6
					l-0.2-0.1c0.5-1,0.7-2.8,0.7-5.3h2.7c-0.1,0.4-0.2,0.8-0.3,1.3c-0.1,0.2-0.1,0.3-0.1,0.5h1.3V7H125.5z M115.5,7h3
					c-0.6,1.4-1.4,2.5-2.3,3.2h1.2v10.4h-2.5v-9.5c-0.5,0.3-1,0.6-1.5,0.8l-0.2-0.1C114.4,10.4,115.2,8.7,115.5,7z"/>
			</g>
			<g id="XMLID_19_">
				<path id="XMLID_37_" d="M120.4,26.1"/>
				<g id="XMLID_20_">
					<path id="XMLID_36_" d="M55.7,34.6V24.5h-1.6v10.3c0,3.8,2.8,4.3,4.5,4.3c0.2,0,0.3,0,0.4,0h3.6v-1.4h-3.5
						C55.8,37.7,55.7,34.6,55.7,34.6z"/>
					<path id="XMLID_35_" d="M70.4,37.9h-3.9h-0.2c-0.2,0-0.7-0.1-1-0.4c-0.4-0.4-0.6-1-0.6-1.9v-6h-1.3v7.1c0,0.1,0.1,2.5,2.7,2.5
						h5.5v-9.6h-1.3L70.4,37.9L70.4,37.9z"/>
					<path id="XMLID_32_" d="M78,29.5h-3.4v-3.9h-1.5v13.5h4.8H78c0.4,0,1.2-0.1,2.1-0.7c1.1-0.8,1.6-2.2,1.6-4.2
						c0,0,0.1-2.5-1.3-3.8C79.9,29.8,79.1,29.5,78,29.5z M80.3,34.4c0,3.4-2.2,3.6-2.7,3.6c-0.1,0-0.2,0-0.2,0h-2.7v-7.2h3.1
						c0.6,0,1.2,0.2,1.6,0.7C80.4,32.4,80.3,34.3,80.3,34.4z"/>
					<path id="XMLID_29_" d="M88.4,29.6h-5.2v1.1h4.4c0.1,0,2.2,0.1,2.2,1.7v1.5h-4.9h-0.3c-0.5,0-1,0.2-1.3,0.5
						c-0.7,0.7-0.7,1.9-0.7,1.9c0,2.6,1.3,2.9,1.9,2.9h0.1h6.6v-7.4C91.2,29.7,88.5,29.6,88.4,29.6z M89.8,38.2L89.8,38.2h-4.7H85
						c-0.4,0-1.2-0.2-1.2-1.9c0,0,0-0.8,0.4-1.2c0.2-0.2,0.5-0.3,0.8-0.3h0.2h0.3h4.2L89.8,38.2L89.8,38.2z"/>
					<path id="XMLID_28_" d="M98.2,29.5h-5.5v9.6H94v-8.4h3.9h0.2c0.3,0,1.6,0.1,1.6,2.3v6h1.3v-7.1
						C100.9,31.9,100.8,29.5,98.2,29.5z"/>
					<path id="XMLID_25_" d="M113.3,38.7c-2.7,0-4.4-1.8-4.4-4.5c0-2.6,1.8-4.5,4.4-4.5c3.4,0,4.3,2.9,4.3,4.5
						C117.6,36.9,115.8,38.7,113.3,38.7z M113.2,30.8c-2.3,0-3.6,1.8-3.6,3.5s1.2,3.5,3.6,3.5c2.1,0,3.5-1.4,3.5-3.5
						C116.8,34.2,116.7,30.8,113.2,30.8z"/>
					<path id="XMLID_24_" d="M119.1,39.2v-8.7h-1.2l0.4-1.1h0.8v-1.2c0-0.4,0-0.9,0.1-1.2c0.2-1.2,1.3-1.7,3.3-1.7h0.4h0.2
						c0.1,0,0.1,0,0.3,0.1l-0.3,1c-0.1,0-0.1,0-0.2,0c-0.2,0-0.3,0-0.4,0c-2.2,0-2.4,0.7-2.4,1.9v1.2h3v1.1h-3v8.7L119.1,39.2
						L119.1,39.2z"/>
					<path id="XMLID_23_" d="M128.6,39.2c-0.7,0-3.2-0.2-3.2-2.7v-6H124l0.4-1.1h1v-2.2l1-0.5v2.7h2.6v1.1h-2.6V36
						c0,0.5,0.1,1.4,0.8,1.8c0.5,0.3,1,0.4,1.6,0.4h0.2v1.1L128.6,39.2z"/>
					<path id="XMLID_22_" d="M104.7,39.2c-0.6,0-1.2-0.1-1.7-0.4c-0.5-0.2-0.9-0.6-1.3-1l0.8-0.8c0.7,0.7,1.4,1,2.2,1
						c0.6,0,1-0.2,1.4-0.5s0.6-0.7,0.6-1.2c0-0.4-0.1-0.7-0.4-1s-0.8-0.6-1.7-1.1c-0.9-0.4-1.6-0.9-1.9-1.3
						c-0.3-0.4-0.5-0.9-0.5-1.5c0-0.7,0.3-1.3,0.8-1.8s1.2-0.7,2-0.7c0.9,0,1.9,0.4,2.8,1.2l-0.8,0.7c-0.7-0.6-1.4-1-2.1-1
						c-0.5,0-0.8,0.1-1.2,0.4c-0.3,0.3-0.5,0.6-0.5,1c0,0.3,0.1,0.6,0.4,0.9c0.3,0.3,0.8,0.6,1.6,1c1,0.5,1.6,0.9,2,1.4
						c0.3,0.4,0.5,0.9,0.5,1.5c0,0.8-0.3,1.4-0.9,2C106.3,38.9,105.6,39.2,104.7,39.2z"/>
					<path id="XMLID_21_" d="M119.9,28.1"/>
				</g>
			</g>
		</g>
	</g>
	<g id="XMLID_6_">
		<g id="XMLID_7_">
			<rect id="XMLID_15_" x="13.2" y="18.4" class="st2" width="9.4" height="9.4"/>
			<rect id="XMLID_14_" x="23.6" y="18.4" class="st2" width="9.4" height="9.4"/>
			<polygon id="XMLID_13_" class="st2" points="12.1,17.6 16.9,17.6 16.9,13.3 1.1,13.3 0,14.4 0,22.5 12.1,22.5 			"/>
			<polygon id="XMLID_12_" class="st2" points="12.1,23.6 0,23.6 0,31.8 1.1,32.9 16.9,32.9 16.9,28.5 12.1,28.5 			"/>
			<polygon id="XMLID_11_" class="st2" points="34,17.6 29.2,17.6 29.2,13.3 45,13.3 46.1,14.4 46.1,22.5 34,22.5 			"/>
			<polygon id="XMLID_10_" class="st2" points="34,23.6 46.1,23.6 46.1,31.8 45,32.9 29.2,32.9 29.2,28.5 34,28.5 			"/>
			<polygon id="XMLID_9_" class="st2" points="18,45 19.1,46.1 27,46.1 28.1,45 28.1,28.5 18,28.5 			"/>
			<polygon id="XMLID_8_" class="st2" points="28.1,1.1 27,0 19.1,0 18,1.1 18,17.6 28.1,17.6 			"/>
		</g>
	</g>
</g>
</svg>
